<svg xmlns="http://www.w3.org/2000/svg" width="50" height="35" viewBox="0 0 50 35">
    <g fill="#FF0017" fill-rule="evenodd">
        <path d="M18.147 6.79c-2.098.552-3.786.481-4.748-.213-2.468-1.83-.584-5.48.079-6.57-1.199 1.334-2.398 2.682-3.336 4.125-1.467 2.28-2.098 4.78-1.096 6.389 1.782 2.902 6.064 1.561 8.793.394L43.194.11 18.147 6.79z"/>
        <path fill-rule="nonzero" d="M35.718 25.962c1.175 0 1.798-1.025 1.798-2.09 0-1.435-.868-2.042-2.082-1.98v4.054l.284.016zm2.153 8.81l-2.492-6.783c.023.804.063 1.609.063 2.413v4.377h-4.425V18.375h4.275c3.84 0 6.617 1.128 6.617 5.458 0 1.806-.781 3.415-2.54 4.109l3.297 6.83H37.87z"/>
        <path d="M41.427 29.25c.608.916 1.672 1.83 2.8 1.83.607 0 1.301-.37 1.301-1.088a1.3 1.3 0 0 0-.347-.915 3.49 3.49 0 0 0-.733-.63c-.868-.671-1.625-1.302-2.192-2.09-.545-.758-.892-1.672-.892-2.871 0-1.917 1.215-5.245 4.992-5.245 1.065 0 2.217.182 3.147.679v4.976c-.52-.828-1.585-1.759-2.602-1.759-.52 0-1.152.37-1.152 1.002 0 .347.197.654.434.915.237.26.568.48.804.67.931.655 1.672 1.262 2.17 2.003.52.741.804 1.609.804 2.847 0 3.044-2.13 5.331-5.205 5.331-1.128 0-2.28-.086-3.32-.528l-.009-5.126zM27.145 34.771l-2.69-7.019v7.02h-4.423V18.374h4.424v4.748l2.224-4.748h4.724l-3.447 7.17 3.825 9.226zM8.462 18.375v16.396h4.275l.007-8.036 3.068 8.036h3.636V18.375H15.18v7.343l-2.097-7.343z"/>
        <path d="M7.792 26.727c-.497-.741-1.238-1.348-2.169-2.003-.237-.197-.568-.41-.804-.67-.237-.26-.434-.568-.434-.915 0-.631.63-1.002 1.151-1.002.876 0 1.783.694 2.35 1.412v-4.606c-.883-.426-1.924-.702-2.894-.702C1.215 18.241 0 21.57 0 23.486c0 1.199.347 2.113.891 2.87.56.781 1.325 1.412 2.193 2.09.276.174.52.387.733.631a1.3 1.3 0 0 1 .347.915c0 .718-.694 1.088-1.301 1.088-1.128 0-2.193-.914-2.8-1.83v5.135c1.041.434 2.193.528 3.32.528 3.084 0 5.205-2.287 5.205-5.331 0-1.246-.284-2.114-.796-2.855"/>
    </g>
</svg>
